G04 #@! TF.GenerationSoftware,KiCad,Pcbnew,(5.1.2)-2*
G04 #@! TF.CreationDate,2019-12-30T17:27:18+01:00*
G04 #@! TF.ProjectId,BalancedAudioBox,42616c61-6e63-4656-9441-7564696f426f,rev?*
G04 #@! TF.SameCoordinates,Original*
G04 #@! TF.FileFunction,Soldermask,Bot*
G04 #@! TF.FilePolarity,Negative*
%FSLAX46Y46*%
G04 Gerber Fmt 4.6, Leading zero omitted, Abs format (unit mm)*
G04 Created by KiCad (PCBNEW (5.1.2)-2) date 2019-12-30 17:27:18*
%MOMM*%
%LPD*%
G04 APERTURE LIST*
%ADD10R,1.800000X1.800000*%
%ADD11O,1.800000X1.800000*%
%ADD12C,4.600000*%
%ADD13C,3.300000*%
%ADD14C,1.516000*%
%ADD15C,3.100000*%
%ADD16C,2.100000*%
G04 APERTURE END LIST*
D10*
X157250000Y-110250000D03*
D11*
X159790000Y-110250000D03*
D10*
X148750000Y-114250000D03*
D11*
X146210000Y-114250000D03*
X116140000Y-126540000D03*
X116140000Y-124000000D03*
X118680000Y-126540000D03*
X118680000Y-124000000D03*
X121220000Y-126540000D03*
X121220000Y-124000000D03*
X123760000Y-126540000D03*
X123760000Y-124000000D03*
X126300000Y-126540000D03*
X126300000Y-124000000D03*
X128840000Y-126540000D03*
X128840000Y-124000000D03*
X131380000Y-126540000D03*
X131380000Y-124000000D03*
X133920000Y-126540000D03*
X133920000Y-124000000D03*
X136460000Y-126540000D03*
X136460000Y-124000000D03*
X139000000Y-126540000D03*
D10*
X139000000Y-124000000D03*
D12*
X114870000Y-68120000D03*
X114870000Y-131620000D03*
X140270000Y-68120000D03*
D13*
X184912000Y-131572000D03*
D11*
X161250000Y-95580000D03*
X161250000Y-93040000D03*
D10*
X161250000Y-90500000D03*
D14*
X146250000Y-90300000D03*
X146250000Y-92840000D03*
X146250000Y-95380000D03*
X146250000Y-100460000D03*
X146250000Y-103000000D03*
D15*
X175190000Y-80755000D03*
D16*
X179000000Y-80755000D03*
D15*
X182810000Y-80755000D03*
X175190000Y-66785000D03*
X182810000Y-71865000D03*
D16*
X179000000Y-75675000D03*
X156000000Y-75675000D03*
D15*
X159810000Y-71865000D03*
X152190000Y-66785000D03*
X159810000Y-80755000D03*
D16*
X156000000Y-80755000D03*
D15*
X152190000Y-80755000D03*
D10*
X171500000Y-95150000D03*
D11*
X168960000Y-95150000D03*
X166420000Y-95150000D03*
M02*
